<svg id="Layer_2" data-name="Layer 2" xmlns="http://www.w3.org/2000/svg" viewBox="0 0 1018.75 1734.23"><defs><style>.cls-1{fill:none;stroke:#0a0909;stroke-miterlimit:10;stroke-width:4px;}</style></defs><path class="cls-1" d="M700.12,232.92h307.57V367.14h22.37v16.77h9.78V490.17h-9.78l1.4,29.35h14V632.77h-12.59v28h12.59V771.17h-15.38V781h50.33v99.26H1100V983.68h16.78v104.85L1086,1103.91l61.52,89.48-39.15,29.36,56.39,82-8.86,6.06,16.78,25.16-14,9.79,54.52,76.89-55.92,37.75,33.55,50.33a22.44,22.44,0,0,1,5,10.49c1.61,9.23-3.28,18.07-9.66,23.06-9.55,7.47-20.82,5-22.36,4.66a28.72,28.72,0,0,1-7.93-2.79,29.46,29.46,0,0,1-10.71-9.79L887.46,1718.13c.81,1.59,5.73,11.59,1.34,22.58-3.88,9.71-13.53,16.36-24.64,17a29.24,29.24,0,0,1-21.91-10.25l-312.7,214.83-75.49-120.23-26.56,21-21-30.76-8.38,7-123-191.53,14-7L269.83,1612l39.84-27.26-5.24-11.54L404,1505.07l5.24,11.53,25.16-16.77-24.11-16.78,5.24-9.43-28.31-18.88-5.53,8.3-22.22-20-9.61-11.36-13.28-16.08-13.32-18.47,10.49-6.29-18.88-24.12-9.43,5.24-19.92-38.79q-6.63-20.5-13.25-41l9.05-4.09-5.24-28.31L235.23,1265l-13.63-3.15-5.24-31.45L230,1217.78a27.68,27.68,0,0,1-21.06-9.08,30.82,30.82,0,0,1-8.39-13.52,30.5,30.5,0,0,1-1-13,34,34,0,0,1,8.42-14.92c8.87-9.1,20.09-10.08,23-10.25l39.85,1L273,1140.2l-11.53-3.15,5.24-23.07,6.29-24.11,6.33-19.11,8.35-16.54,11.92,5,13.28-30.75-9.08-3.42,15.38-25.24,14.68-18.88,11.18-14L357.59,955l7,5.59,21-18.87L380,934.05l14-12.58,19.57-14.68,20.28-13.29,17.47-9.08,5.59,7.69,27.27-11.19-3.5-9.09,11.19-4.89a191.84,191.84,0,0,1,60.11-14.68l12.58-.7.7,8.39,21.67-3.49V817.31l.7-9.09,2.8-5.59,3.84-4.43,4.08-3.26,3.15-1.63,2.44-.93,3.38-1.17,2.68-.58,3.15-.23,1.4-.12,3.72.23,3.62.7,3.61,1.17,1.39.58,2.1.93,2.22,1.28,3.14,2.33,2.45,2.8,1.4,1.63,1.86,2.8,1.4,2.91.35,1.4.93,2.91.58,2.33v6.53l-2,29.47,9.67.93,7.92,1.4,9.44,2.1,11,2.45,2.62.69-2.27,9.27,6.12,1.22,1.39.35,14.16,3.67,6.64,1.75,2.62-8.39,33.21,13.11,2.62-.18.87-1-.17-15.2-9.79.52.87-66.41,9.62-.34.34-14.51-.34-15-9.09-.17.17-107.13,10.31-.52.18-30.59-9.61.18.52-20.45,9.61-.35.35-12.58-98,.52-6.11-1.39-5.25-2.8-3.32-2.1-3.32-3.49L632,582.09l-1.75-3.15-.87-2.79-.7-7.17-.17-4.19,1.57-5.07,1.57-3.32,2.27-2.8,3-3,1.75-1.57,2.45-2.1,2.62-.87,2.1-.88,2.44-.52,3.15-.35h.87l98-.17" transform="translate(-197.27 -230.92)"/><path class="cls-1" d="M1143.3,1537.71" transform="translate(-197.27 -230.92)"/><polyline class="cls-1" points="475.93 310.85 465.62 299.66 465.62 279.39 475.93 269.95 550.73 269.95"/><polyline class="cls-1" points="499.35 268.38 499.35 258.94 490.79 258.94 491.83 154.61 500.22 154.61 500.22 146.22 478.55 146.22 478.55 130.15 557.19 130.15 558.24 1"/><path class="cls-1" d="M645.59,1161.63l32.51-23.07c-28.16-42.19-85.93-52.54-125.77-24.25-38,27-48.54,81.28-22.08,121.77l31.61-21a50.07,50.07,0,0,0,65.77,14.25c16.19-9.34,22.17-26.77,22.83-29,6-20.12-2.88-36.52-4.5-39.39" transform="translate(-197.27 -230.92)"/><line class="cls-1" x1="832.79" y1="145.35" x2="500.22" y2="146.22"/><polygon class="cls-1" points="597.21 179.95 793.29 179.95 791.96 274.35 788.05 551.14 597.21 551.14 597.21 269.95 597.21 179.95"/><line class="cls-1" x1="597.21" y1="269.95" x2="792.02" y2="269.95"/><line class="cls-1" x1="597.21" y1="414.83" x2="789.97" y2="414.83"/><line class="cls-1" x1="693.59" y1="269.95" x2="693.59" y2="551.14"/><polygon class="cls-1" points="597.21 632.92 789.97 632.92 789.97 685.35 789.97 823.76 593.02 823.76 595.99 688.47 597.21 632.92"/><line class="cls-1" x1="595.99" y1="688.47" x2="789.97" y2="685.35"/><line class="cls-1" x1="691.5" y1="632.92" x2="691.5" y2="823.76"/><line class="cls-1" x1="642.3" y1="632.92" x2="642.3" y2="685.35"/><line class="cls-1" x1="740.86" y1="632.92" x2="740.86" y2="685.35"/><polyline class="cls-1" points="593.02 823.76 593.02 936.33 627.62 992.57 749.25 908.16 749.25 823.76"/><path class="cls-1" d="M839.57,1054.68" transform="translate(-197.27 -230.92)"/><line class="cls-1" x1="593.02" y1="936.33" x2="703.62" y2="939.83"/><line class="cls-1" x1="642.3" y1="823.76" x2="642.3" y2="936.33"/><polyline class="cls-1" points="681.33 823.76 681.33 888.77 681.33 939.12"/><line class="cls-1" x1="749.25" y1="890.63" x2="681.33" y2="888.77"/><path class="cls-1" d="M581.75,1744.62" transform="translate(-197.27 -230.92)"/><path class="cls-1" d="M691.73,1673.32" transform="translate(-197.27 -230.92)"/><path class="cls-1" d="M678.1,1651.3" transform="translate(-197.27 -230.92)"/><polyline class="cls-1" points="256.79 1611.16 250.74 1601.91 246.36 1595.22 114.88 1394.16 475.58 1143.56 601.41 1334.4 436.94 1445.77"/><polyline class="cls-1" points="251.19 1600.38 493.36 1440.63 565.76 1391.37 644.98 1516.56"/><polyline class="cls-1" points="314.1 1255.75 449.48 1465.17 451.48 1468.26"/><polyline class="cls-1" points="175.38 1486.67 376.97 1353 537 1243.17"/><line class="cls-1" x1="188.98" y1="1366.2" x2="241.15" y2="1443.06"/><line class="cls-1" x1="256.09" y1="1322.17" x2="308.42" y2="1399.78"/><path class="cls-1" d="M618.33,1553.09" transform="translate(-197.27 -230.92)"/><path class="cls-1" d="M734.28,1467.64" transform="translate(-197.27 -230.92)"/><path class="cls-1" d="M628.82,1577.55" transform="translate(-197.27 -230.92)"/><path class="cls-1" d="M678.1,1651.3" transform="translate(-197.27 -230.92)"/><line class="cls-1" x1="586.73" y1="1553.54" x2="506.29" y2="1431.84"/><polyline class="cls-1" points="353.42 1228.43 399.57 1301.19 361.88 1329.66"/><polygon class="cls-1" points="833.13 914.98 601.41 1075.41 655.93 1160.34 887.66 997.82 833.13 914.98"/><polyline class="cls-1" points="911.08 991.83 887.66 997.82 946.03 1085.89 735.62 1228.43 679.85 1143.56"/><path class="cls-1" d="M306.09,1177c13.55-177.14,139.79-287,312.24-287" transform="translate(-197.27 -230.92)"/><path class="cls-1" d="M564.25,1501.36" transform="translate(-197.27 -230.92)"/><path class="cls-1" d="M456.62,1478.76A290.42,290.42,0,0,1,412,1451.5c-5.89-4.39-11.36-8.8-16.43-13.17-6.66-5.95-13.59-12.58-20.62-19.92-5.85-6.12-11.2-12.13-16.08-17.94" transform="translate(-197.27 -230.92)"/><path class="cls-1" d="M343.26,1381.13c-5.18-7.72-11.63-18-18.35-30.41-1.81-3.37-5.32-10-9.08-18a359.07,359.07,0,0,1-19.23-50.86" transform="translate(-197.27 -230.92)"/><path class="cls-1" d="M292.58,1267l-3-12.76" transform="translate(-197.27 -230.92)"/><polyline class="cls-1" points="106.32 964.09 106.32 980.34 32.71 986.86"/><polyline class="cls-1" points="110.1 932.39 141.62 935.08 140.05 960.07"/><path class="cls-1" d="M276.85,1258.45" transform="translate(-197.27 -230.92)"/><polyline class="cls-1" points="141.62 984.18 145.47 1011.45 52.31 1032.2"/><path class="cls-1" d="M589.2,910.91l5.6,151.92" transform="translate(-197.27 -230.92)"/><path class="cls-1" d="M675.42,1085.67" transform="translate(-197.27 -230.92)"/><polyline class="cls-1" points="478.14 854.75 537.79 823.76 554.57 823.76 554.57 686.91 547.58 686.91 546.53 647.9"/><path class="cls-1" d="M744.85,917.83h-7.92A526.32,526.32,0,0,0,660.5,894.6" transform="translate(-197.27 -230.92)"/><path class="cls-1" d="M569.4,1310.52l-34.25,119.54-100.71,69.77" transform="translate(-197.27 -230.92)"/><line class="cls-1" x1="128.95" y1="1150.2" x2="302.22" y2="1027.52"/><path class="cls-1" d="M589.2,1234.23,576,1260.64a77.47,77.47,0,0,0,105.25-72.26l-27.77-5.1" transform="translate(-197.27 -230.92)"/><path class="cls-1" d="M570.08,1309.87l-.71-.21c-66.81-19.52-105.83-90.16-86.45-156.48s90.3-104.81,157.11-85.29a127.88,127.88,0,0,1,36.39,17.25" transform="translate(-197.27 -230.92)"/><polyline class="cls-1" points="833.13 914.98 808.32 880.04 864.94 841.93 888.71 872.99"/><polyline class="cls-1" points="841.87 854.75 841.87 758.75 919.47 758.75"/><path class="cls-1" d="M1039.15,789.75" transform="translate(-197.27 -230.92)"/><path class="cls-1" d="M1039.15,782.06" transform="translate(-197.27 -230.92)"/><path class="cls-1" d="M1039.15,824.7" transform="translate(-197.27 -230.92)"/><path class="cls-1" d="M1039.15,808.62" transform="translate(-197.27 -230.92)"/><path class="cls-1" d="M1039.15,845.67" transform="translate(-197.27 -230.92)"/><path class="cls-1" d="M1077.94,854.76" transform="translate(-197.27 -230.92)"/><path class="cls-1" d="M1077.94,816.66" transform="translate(-197.27 -230.92)"/><path class="cls-1" d="M1039.15,816.66" transform="translate(-197.27 -230.92)"/><polyline class="cls-1" points="899.89 650.4 841.87 650.4 843.1 551.14"/><line class="cls-1" x1="841.87" y1="758.75" x2="841.87" y2="686.91"/><path class="cls-1" d="M705.45,541.77" transform="translate(-197.27 -230.92)"/><line class="cls-1" x1="550.9" y1="550.74" x2="478.55" y2="550.74"/><path class="cls-1" d="M675.42,785.9" transform="translate(-197.27 -230.92)"/><path class="cls-1" d="M698,785.9" transform="translate(-197.27 -230.92)"/><polyline class="cls-1" points="690.18 1487.2 634.26 1399.78 622.38 1379.48 734.92 1302.59 803.84 1407.05"/><path class="cls-1" d="M877.12,1574.76" transform="translate(-197.27 -230.92)"/><path class="cls-1" d="M819.65,1614.43" transform="translate(-197.27 -230.92)"/><path class="cls-1" d="M984.62,1622.29" transform="translate(-197.27 -230.92)"/><path class="cls-1" d="M938.49,1553.09" transform="translate(-197.27 -230.92)"/><path class="cls-1" d="M901.49,1582.39" transform="translate(-197.27 -230.92)"/><path class="cls-1" d="M901.49,1582.39" transform="translate(-197.27 -230.92)"/><path class="cls-1" d="M938.49,1558" transform="translate(-197.27 -230.92)"/><path class="cls-1" d="M1122.33,1374.49" transform="translate(-197.27 -230.92)"/><path class="cls-1" d="M1158.68,1345.78" transform="translate(-197.27 -230.92)"/><line class="cls-1" x1="693.43" y1="1330.94" x2="763.93" y2="1435.2"/><path class="cls-1" d="M938.49,1553.09" transform="translate(-197.27 -230.92)"/><line class="cls-1" x1="706.38" y1="1347.8" x2="745.41" y2="1321"/><polyline class="cls-1" points="844.55 1378.34 774.42 1272.71 813.74 1246.15 883.5 1350.87"/><line class="cls-1" x1="837.65" y1="1282.05" x2="798.25" y2="1308.61"/><line class="cls-1" x1="859.63" y1="1315.04" x2="820.42" y2="1342"/><path class="cls-1" d="M1012.06,1475.5" transform="translate(-197.27 -230.92)"/><polyline class="cls-1" points="815.49 1246.15 880.5 1200.88 948.55 1306.41"/><polyline class="cls-1" points="962.96 1117.04 910.73 1152.65 961.58 1228.43"/><polyline class="cls-1" points="883.12 585.74 880.67 585.74 844.14 585.74"/><line class="cls-1" x1="842.2" y1="623.83" x2="883.12" y2="623.83"/><path class="cls-1" d="M705.45,537.57" transform="translate(-197.27 -230.92)"/><path class="cls-1" d="M705.45,533.9" transform="translate(-197.27 -230.92)"/><line class="cls-1" x1="508.17" y1="269.95" x2="507.39" y2="313.32"/></svg>